<svg width="412.08" height="60.001" viewBox="0 0 412.08 60.001" xmlns="http://www.w3.org/2000/svg"><g id="svgGroup" stroke-linecap="round" fill-rule="evenodd" font-size="9pt" stroke-width="1" stroke="#FFFFFF" fill="#FFFFFF" style="stroke:#FFFFFF;stroke-width:1;fill:#FFFFFF"><path d="M 10.96 59.121 L 0 59.121 L 0 3.121 L 11.04 3.121 L 38.88 39.281 L 38.88 3.121 L 49.76 3.121 L 49.76 59.121 L 39.52 59.121 L 10.96 21.681 L 10.96 59.121 Z" id="0" vector-effect="non-scaling-stroke"/><path d="M 70.16 59.121 L 59.2 59.121 L 59.2 17.441 L 70.16 17.441 L 70.16 59.121 Z M 60.298 10.698 A 5.994 5.994 0 0 0 64.64 12.481 A 7.492 7.492 0 0 0 64.763 12.48 A 5.949 5.949 0 0 0 69.08 10.641 A 7.109 7.109 0 0 0 69.087 10.633 A 6.07 6.07 0 0 0 70.88 6.241 A 7.684 7.684 0 0 0 70.88 6.158 A 6.02 6.02 0 0 0 69.08 1.801 A 6.048 6.048 0 0 0 67.139 0.479 A 6.383 6.383 0 0 0 64.64 0.001 A 5.207 5.207 0 0 0 64.635 0.001 A 6.071 6.071 0 0 0 60.24 1.801 A 6.071 6.071 0 0 0 58.935 3.638 A 6.227 6.227 0 0 0 58.4 6.241 A 6.222 6.222 0 0 0 58.707 8.211 A 6.157 6.157 0 0 0 60.24 10.641 A 7.431 7.431 0 0 0 60.298 10.698 Z" id="1" vector-effect="non-scaling-stroke"/><path d="M 115.92 24.081 L 109.2 31.201 A 19.563 19.563 0 0 0 107.019 29.121 A 14.216 14.216 0 0 0 104.36 27.401 A 12.232 12.232 0 0 0 98.926 26.161 A 14.123 14.123 0 0 0 98.88 26.161 A 10.934 10.934 0 0 0 95.146 26.786 A 10.053 10.053 0 0 0 93.16 27.761 Q 90.64 29.361 89.16 32.081 A 12.141 12.141 0 0 0 87.797 36.404 A 15.286 15.286 0 0 0 87.68 38.321 A 13.199 13.199 0 0 0 88.38 42.657 A 12.176 12.176 0 0 0 89.16 44.441 Q 90.64 47.201 93.28 48.761 A 11.266 11.266 0 0 0 99.12 50.321 Q 101.92 50.321 104.36 49.161 A 14.597 14.597 0 0 0 107.151 47.403 A 19.228 19.228 0 0 0 109.04 45.681 L 115.6 52.561 Q 112.4 56.001 107.92 57.961 Q 103.44 59.921 98.64 59.921 A 22.994 22.994 0 0 1 91.24 58.755 A 20.953 20.953 0 0 1 87.52 57.081 Q 82.56 54.241 79.68 49.321 A 21.198 21.198 0 0 1 76.811 39.076 A 25.225 25.225 0 0 1 76.8 38.321 A 22.551 22.551 0 0 1 77.863 31.309 A 20.17 20.17 0 0 1 79.68 27.281 Q 82.56 22.401 87.52 19.521 A 21.464 21.464 0 0 1 97.496 16.666 A 25.657 25.657 0 0 1 98.64 16.641 Q 103.6 16.641 108.12 18.561 Q 112.64 20.481 115.92 24.081 Z" id="2" vector-effect="non-scaling-stroke"/><path d="M 132.727 58.68 A 23.269 23.269 0 0 0 140.4 59.921 A 26.618 26.618 0 0 0 142.152 59.864 A 22.016 22.016 0 0 0 151.76 57.041 Q 156.8 54.161 159.72 49.281 A 20.174 20.174 0 0 0 161.352 45.866 A 21.731 21.731 0 0 0 162.64 38.321 A 24.987 24.987 0 0 0 162.634 37.753 A 21.019 21.019 0 0 0 159.72 27.321 Q 156.8 22.401 151.72 19.521 A 21.699 21.699 0 0 0 148.432 18.002 A 23.314 23.314 0 0 0 140.4 16.641 A 26.553 26.553 0 0 0 139.576 16.653 A 22.355 22.355 0 0 0 129.08 19.521 Q 124 22.401 121.08 27.321 A 20.535 20.535 0 0 0 119.604 30.344 A 21.76 21.76 0 0 0 118.16 38.321 A 24.528 24.528 0 0 0 118.172 39.076 A 20.55 20.55 0 0 0 121.12 49.281 Q 124.08 54.161 129.12 57.041 A 21.346 21.346 0 0 0 132.727 58.68 Z M 140.4 50.401 A 11.503 11.503 0 0 0 144.279 49.76 A 10.544 10.544 0 0 0 146.28 48.801 Q 148.88 47.201 150.44 44.441 A 12.172 12.172 0 0 0 151.998 38.543 A 14.349 14.349 0 0 0 152 38.321 A 12.981 12.981 0 0 0 151.457 34.513 A 11.402 11.402 0 0 0 150.44 32.161 Q 148.88 29.441 146.28 27.801 A 10.7 10.7 0 0 0 140.807 26.167 A 12.873 12.873 0 0 0 140.4 26.161 Q 137.2 26.161 134.56 27.801 Q 131.92 29.441 130.4 32.161 A 12.03 12.03 0 0 0 128.933 37.056 A 14.717 14.717 0 0 0 128.88 38.321 Q 128.88 41.681 130.4 44.441 Q 131.92 47.201 134.56 48.801 Q 137.2 50.401 140.4 50.401 Z" id="3" vector-effect="non-scaling-stroke"/><path d="M 196.88 59.121 L 186.16 59.121 L 186.16 3.121 L 201.04 3.121 L 216.4 33.281 L 231.76 3.121 L 246.64 3.121 L 246.64 59.121 L 235.68 59.121 L 235.68 17.921 L 216.24 55.121 L 196.88 17.761 L 196.88 59.121 Z" id="5" vector-effect="non-scaling-stroke"/><path d="M 293.2 24.081 L 286.48 31.201 A 19.563 19.563 0 0 0 284.299 29.121 A 14.216 14.216 0 0 0 281.64 27.401 A 12.232 12.232 0 0 0 276.206 26.161 A 14.123 14.123 0 0 0 276.16 26.161 A 10.934 10.934 0 0 0 272.426 26.786 A 10.053 10.053 0 0 0 270.44 27.761 Q 267.92 29.361 266.44 32.081 A 12.141 12.141 0 0 0 265.077 36.404 A 15.286 15.286 0 0 0 264.96 38.321 A 13.199 13.199 0 0 0 265.66 42.657 A 12.176 12.176 0 0 0 266.44 44.441 Q 267.92 47.201 270.56 48.761 A 11.266 11.266 0 0 0 276.4 50.321 Q 279.2 50.321 281.64 49.161 A 14.597 14.597 0 0 0 284.431 47.403 A 19.228 19.228 0 0 0 286.32 45.681 L 292.88 52.561 Q 289.68 56.001 285.2 57.961 Q 280.72 59.921 275.92 59.921 A 22.994 22.994 0 0 1 268.52 58.755 A 20.953 20.953 0 0 1 264.8 57.081 Q 259.84 54.241 256.96 49.321 A 21.198 21.198 0 0 1 254.091 39.076 A 25.225 25.225 0 0 1 254.08 38.321 A 22.551 22.551 0 0 1 255.143 31.309 A 20.17 20.17 0 0 1 256.96 27.281 Q 259.84 22.401 264.8 19.521 A 21.464 21.464 0 0 1 274.776 16.666 A 25.657 25.657 0 0 1 275.92 16.641 Q 280.88 16.641 285.4 18.561 Q 289.92 20.481 293.2 24.081 Z" id="6" vector-effect="non-scaling-stroke"/><path d="M 349.92 12.721 L 341.84 20.161 Q 338.96 16.561 335.04 14.721 Q 331.12 12.881 326.64 12.881 Q 322.88 12.881 319.68 14.281 Q 316.48 15.681 314.08 18.121 Q 311.68 20.561 310.36 23.881 Q 309.04 27.201 309.04 31.121 A 19.88 19.88 0 0 0 309.743 36.466 A 17.987 17.987 0 0 0 310.4 38.401 Q 311.76 41.761 314.2 44.201 Q 316.64 46.641 319.88 48.041 A 17.28 17.28 0 0 0 325.775 49.406 A 20.332 20.332 0 0 0 326.96 49.441 A 18.593 18.593 0 0 0 331.151 48.985 A 15.394 15.394 0 0 0 334.16 47.961 Q 337.36 46.481 339.56 43.801 Q 341.76 41.121 342.48 37.761 L 325.92 37.761 L 325.92 27.681 L 354.88 27.681 L 354.88 31.201 A 32.084 32.084 0 0 1 354.01 38.785 A 27.916 27.916 0 0 1 352.76 42.681 Q 350.64 47.921 346.88 51.801 Q 343.12 55.681 338 57.841 A 27.758 27.758 0 0 1 329.046 59.925 A 32.795 32.795 0 0 1 326.8 60.001 A 31.125 31.125 0 0 1 317.979 58.776 A 28.43 28.43 0 0 1 315.2 57.801 Q 309.84 55.601 305.76 51.641 Q 301.68 47.681 299.4 42.441 Q 297.12 37.201 297.12 31.121 A 28.529 28.529 0 0 1 298.625 21.795 A 26.814 26.814 0 0 1 299.4 19.801 Q 301.68 14.561 305.68 10.601 Q 309.68 6.641 315.08 4.441 A 30.247 30.247 0 0 1 326.256 2.243 A 34.299 34.299 0 0 1 326.64 2.241 Q 333.6 2.241 339.76 5.001 A 27.445 27.445 0 0 1 348.206 10.796 A 26.176 26.176 0 0 1 349.92 12.721 Z" id="7" vector-effect="non-scaling-stroke"/><path d="M 373.04 59.121 L 362.08 59.121 L 362.08 17.441 L 373.04 17.441 L 373.04 59.121 Z M 363.178 10.698 A 5.994 5.994 0 0 0 367.52 12.481 A 7.492 7.492 0 0 0 367.643 12.48 A 5.949 5.949 0 0 0 371.96 10.641 A 7.109 7.109 0 0 0 371.967 10.633 A 6.07 6.07 0 0 0 373.76 6.241 A 7.684 7.684 0 0 0 373.76 6.158 A 6.02 6.02 0 0 0 371.96 1.801 A 6.048 6.048 0 0 0 370.019 0.479 A 6.383 6.383 0 0 0 367.52 0.001 A 5.207 5.207 0 0 0 367.515 0.001 A 6.071 6.071 0 0 0 363.12 1.801 A 6.071 6.071 0 0 0 361.815 3.638 A 6.227 6.227 0 0 0 361.28 6.241 A 6.222 6.222 0 0 0 361.587 8.211 A 6.157 6.157 0 0 0 363.12 10.641 A 7.431 7.431 0 0 0 363.178 10.698 Z" id="8" vector-effect="non-scaling-stroke"/><path d="M 392.56 59.121 L 381.6 59.121 L 381.6 3.121 L 392.56 1.281 L 392.56 59.121 Z" id="9" vector-effect="non-scaling-stroke"/><path d="M 412.08 59.121 L 401.12 59.121 L 401.12 3.121 L 412.08 1.281 L 412.08 59.121 Z" id="10" vector-effect="non-scaling-stroke"/></g></svg>